<?xml version="1.0" encoding="UTF-8" standalone="no"?>
<!DOCTYPE svg PUBLIC "-//W3C//DTD SVG 1.1//EN" "http://www.w3.org/Graphics/SVG/1.1/DTD/svg11.dtd">
<!-- 由 Microsoft Visio, SVG Export 生成 scale_attention_net.svg Page-1 -->
<svg xmlns="http://www.w3.org/2000/svg" xmlns:xlink="http://www.w3.org/1999/xlink" xmlns:ev="http://www.w3.org/2001/xml-events"
		width="9.73648in" height="6.04647in" viewBox="0 0 701.027 435.346" xml:space="preserve" color-interpolation-filters="sRGB"
		class="st43">
	<style type="text/css">
	<![CDATA[
		.st1 {fill:#ffffff;stroke:#7f7f7f;stroke-dasharray:0.75,1.5;stroke-linecap:round;stroke-linejoin:round;stroke-width:0.75}
		.st2 {fill:#000000;font-family:Times New Roman;font-size:0.75em;font-stretch:semi-expanded}
		.st3 {stroke:#000000;stroke-linecap:round;stroke-linejoin:round;stroke-width:0.75}
		.st4 {marker-end:url(#mrkr5-39);stroke:#000000;stroke-linecap:round;stroke-linejoin:round;stroke-width:0.75}
		.st5 {fill:#000000;fill-opacity:1;stroke:#000000;stroke-opacity:1;stroke-width:0.22935779816514}
		.st6 {fill:#f2f2f2;stroke:#000000;stroke-linecap:round;stroke-linejoin:round;stroke-width:0.24}
		.st7 {fill:#e8e8e8;stroke:#000000;stroke-linecap:round;stroke-linejoin:round;stroke-width:0.24}
		.st8 {fill:#dddddd;stroke:#000000;stroke-linecap:round;stroke-linejoin:round;stroke-width:0.24}
		.st9 {fill:#d2d2d2;stroke:#000000;stroke-linecap:round;stroke-linejoin:round;stroke-width:0.24}
		.st10 {fill:#c4c4c4;stroke:#000000;stroke-linecap:round;stroke-linejoin:round;stroke-width:0.24}
		.st11 {marker-start:url(#mrkr5-75);stroke:#000000;stroke-linecap:round;stroke-linejoin:round;stroke-width:0.75}
		.st12 {fill:#1d1d1d;stroke:#000000;stroke-linecap:round;stroke-linejoin:round;stroke-width:0.24}
		.st13 {stroke:#ffffff;stroke-linecap:round;stroke-linejoin:round;stroke-width:0.75}
		.st14 {fill:#ebf5f8;stroke:#000000;stroke-linecap:round;stroke-linejoin:round;stroke-width:0.24}
		.st15 {fill:#b3dbe6;stroke:#000000;stroke-linecap:round;stroke-linejoin:round;stroke-width:0.24}
		.st16 {fill:#dbeef3;stroke:#000000;stroke-linecap:round;stroke-linejoin:round;stroke-width:0.24}
		.st17 {fill:#ffcccc;stroke:#000000;stroke-linecap:round;stroke-linejoin:round;stroke-width:0.24}
		.st18 {fill:#000000;font-family:Times New Roman;font-size:0.75em}
		.st19 {fill:#d1deb8;fill-opacity:0.56;stroke:#000000;stroke-linecap:round;stroke-linejoin:round;stroke-width:0.24}
		.st20 {fill:#d7ecf2;stroke:#000000;stroke-linecap:round;stroke-linejoin:round;stroke-width:0.24}
		.st21 {fill:#8ecadb;stroke:#000000;stroke-linecap:round;stroke-linejoin:round;stroke-width:0.24}
		.st22 {fill:#b7dde8;stroke:#000000;stroke-linecap:round;stroke-linejoin:round;stroke-width:0.24}
		.st23 {fill:#c9d9a8;fill-opacity:0.95;stroke:#000000;stroke-linecap:round;stroke-linejoin:round;stroke-width:0.24}
		.st24 {fill:#c2e2eb;stroke:#000000;stroke-linecap:round;stroke-linejoin:round;stroke-width:0.24}
		.st25 {fill:#69bbcf;stroke:#000000;stroke-linecap:round;stroke-linejoin:round;stroke-width:0.24}
		.st26 {fill:#92cddc;stroke:#000000;stroke-linecap:round;stroke-linejoin:round;stroke-width:0.24}
		.st27 {fill:#b7cc8a;stroke:#000000;stroke-linecap:round;stroke-linejoin:round;stroke-width:0.24}
		.st28 {fill:#a7d7e2;stroke:#000000;stroke-linecap:round;stroke-linejoin:round;stroke-width:0.24}
		.st29 {fill:#3d9fb8;stroke:#000000;stroke-linecap:round;stroke-linejoin:round;stroke-width:0.24}
		.st30 {fill:#5fb6cb;stroke:#000000;stroke-linecap:round;stroke-linejoin:round;stroke-width:0.24}
		.st31 {fill:#a8c272;stroke:#000000;stroke-linecap:round;stroke-linejoin:round;stroke-width:0.24}
		.st32 {fill:#ffffff;stroke:#000000;stroke-linecap:round;stroke-linejoin:round;stroke-width:0.75}
		.st33 {fill:#e9efdc;stroke:#000000;stroke-linecap:round;stroke-linejoin:round;stroke-width:0.24}
		.st34 {fill:#e0e9cd;stroke:#000000;stroke-linecap:round;stroke-linejoin:round;stroke-width:0.24}
		.st35 {fill:#cddcaf;stroke:#000000;stroke-linecap:round;stroke-linejoin:round;stroke-width:0.24}
		.st36 {fill:#b1c981;stroke:#000000;stroke-linecap:round;stroke-linejoin:round;stroke-width:0.24}
		.st37 {fill:none;stroke:none;stroke-linecap:round;stroke-linejoin:round;stroke-width:0.75}
		.st38 {fill:#000000;font-family:Times New Roman;font-size:0.833336em}
		.st39 {fill:#ffffff;stroke:#000000;stroke-linecap:round;stroke-linejoin:round;stroke-width:0.24}
		.st40 {fill:#ccc2d9;stroke:#000000;stroke-linecap:round;stroke-linejoin:round;stroke-width:0.24}
		.st41 {fill:#d1deb8;fill-opacity:0.59;stroke:#000000;stroke-linecap:round;stroke-linejoin:round;stroke-width:0.24}
		.st42 {fill:#c9d9a8;stroke:#000000;stroke-linecap:round;stroke-linejoin:round;stroke-width:0.24}
		.st43 {fill:none;fill-rule:evenodd;font-size:12px;overflow:visible;stroke-linecap:square;stroke-miterlimit:3}
	]]>
	</style>

	<defs id="Patterns_And_Gradients">
		<linearGradient id="grad0-11" x1="0" y1="0" x2="1" y2="0" gradientTransform="rotate(90 0.5 0.5)">
			<stop offset="0.01" stop-color="#ffffff" stop-opacity="1"/>
			<stop offset="0.5" stop-color="#fefefe" stop-opacity="1"/>
			<stop offset="1" stop-color="#ffffff" stop-opacity="1"/>
		</linearGradient>
		<linearGradient id="grad0-15" x1="0" y1="0" x2="1" y2="0" gradientTransform="rotate(270 0.5 0.5)">
			<stop offset="0" stop-color="#fefefe" stop-opacity="1"/>
			<stop offset="1" stop-color="#ffffff" stop-opacity="1"/>
		</linearGradient>
	</defs>
	<defs id="Markers">
		<g id="lend5">
			<path d="M 2 1 L 0 0 L 1.98117 -0.993387 C 1.67173 -0.364515 1.67301 0.372641 1.98465 1.00043 " style="stroke:none"/>
		</g>
		<marker id="mrkr5-39" class="st5" refX="-7.63" orient="auto" markerUnits="strokeWidth" overflow="visible">
			<use xlink:href="#lend5" transform="scale(-4.36,-4.36) "/>
		</marker>
		<marker id="mrkr5-75" class="st5" refX="7.15" orient="auto" markerUnits="strokeWidth" overflow="visible">
			<use xlink:href="#lend5" transform="scale(4.36) "/>
		</marker>
	</defs>
	<g>
		<title>页-1</title>
		<g id="group414-1" transform="translate(0.375,-2.83465)">
			<title>普通.414</title>
			<g id="group415-2">
				<title>工作表.415</title>
				<g id="shape416-3" transform="translate(2.83465,2.83465)">
					<title>工作表.416</title>
				</g>
				<g id="shape415-5">
					<path d="M0 435.35 L122.86 435.35 L245.72 435.35 L245.72 239.81 L122.86 239.81 L0 239.81 L0 435.35 Z"
							class="st1"/>
				</g>
			</g>
			<g id="group417-7" transform="translate(0,-174.276)">
				<title>工作表.417</title>
				<desc>Backbone</desc>
				<g id="shape418-8">
					<title>工作表.418</title>
				</g>
				<g id="shape417-12">
					<text x="6" y="427.42" class="st2">Backbone</text>				</g>
			</g>
		</g>
		<g id="group419-17" transform="translate(0.78885,-232.539)">
			<title>普通.419</title>
			<g id="group420-18">
				<title>工作表.420</title>
				<g id="shape421-19" transform="translate(2.83465,2.83465)">
					<title>工作表.421</title>
				</g>
				<g id="shape420-21">
					<path d="M0 435.35 L122.86 435.35 L245.72 435.35 L245.72 327.48 L122.86 327.48 L0 327.48 L0 435.35 Z"
							class="st1"/>
				</g>
			</g>
			<g id="group422-23" transform="translate(0,-86.6085)">
				<title>工作表.422</title>
				<desc>ASPP</desc>
				<g id="shape423-24">
					<title>工作表.423</title>
				</g>
				<g id="shape422-27">
					<text x="6" y="427.42" class="st2">ASPP</text>				</g>
			</g>
		</g>
		<g id="shape1020-31" transform="translate(297.13,-95.509)">
			<title>动态连接线.1020</title>
			<path d="M0 435.35 L0 496.56 L220.62 496.56" class="st3"/>
		</g>
		<g id="shape1017-34" transform="translate(304.075,-173.628)">
			<title>动态连接线.1017</title>
			<path d="M-7.09 435.35 L-7.09 471.67" class="st4"/>
		</g>
		<g id="group435-40" transform="translate(8.87894,-11.3386)">
			<title>工作表.435</title>
			<g id="shape436-41" transform="translate(0.36768,-1.82229)">
				<title>平行四边形.42</title>
				<path d="M0 435.35 L160.1 435.35 L228.71 359.78 L68.61 359.78 L0 435.35 Z" class="st6"/>
			</g>
			<g id="shape437-43" transform="translate(22.0699,-38.865)">
				<title>平行四边形.41</title>
				<path d="M0 435.35 L129.67 435.35 L185.24 374.14 L55.57 374.14 L0 435.35 Z" class="st7"/>
			</g>
			<g id="shape438-45" transform="translate(37.1262,-71.7226)">
				<title>平行四边形.40</title>
				<path d="M0 435.35 L108.37 435.35 L154.81 384.19 L46.44 384.19 L0 435.35 Z" class="st8"/>
			</g>
			<g id="shape439-47" transform="translate(50.0134,-96.8295)">
				<title>平行四边形</title>
				<path d="M0 435.35 L90.08 435.35 L128.69 392.83 L38.61 392.83 L0 435.35 Z" class="st9"/>
			</g>
			<g id="shape440-49" transform="translate(60.1245,-118.089)">
				<title>平行四边形.43</title>
				<path d="M0 435.35 L75.93 435.35 L108.46 399.51 L32.54 399.51 L0 435.35 Z" class="st10"/>
			</g>
		</g>
		<g id="shape494-51" transform="translate(177.594,-115.411)">
			<title>动态连接线.494</title>
			<path d="M0 442.12 L109.95 442.74" class="st3"/>
		</g>
		<g id="shape495-54" transform="translate(168.276,-129.428)">
			<title>动态连接线.495</title>
			<path d="M0 435.35 C0.41 435.35 16.45 436.72 37.28 429.71 C63.07 421.04 96.2 399.51 114.54 379.33" class="st3"/>
		</g>
		<g id="shape496-57" transform="translate(161.199,-147.347)">
			<title>动态连接线.496</title>
			<path d="M0 435.35 C15.4 434.44 45.39 410.81 68.8 386.35 C94.15 359.86 111.78 332.39 120.63 307.96" class="st3"/>
		</g>
		<g id="shape497-60" transform="translate(116.421,-149.732)">
			<title>动态连接线.497</title>
			<path d="M6.94 435.35 L7.21 358.26" class="st4"/>
		</g>
		<g id="shape498-65" transform="translate(471.319,-108.431)">
			<title>右括号.498</title>
			<path d="M0 435.35 L23.28 435.35 L23.28 403.46 L46.56 403.46 L23.28 403.46 L23.28 168.23 L0 168.23" class="st3"/>
		</g>
		<g id="shape531-68" transform="translate(63.9197,-359.851)">
			<title>平行四边形.531</title>
			<path d="M0 435.35 L83.62 435.35 L119.46 399.51 L35.84 399.51 L0 435.35 Z" class="st10"/>
		</g>
		<g id="shape532-70" transform="translate(295.611,-367.717)">
			<title>动态连接线.532</title>
			<path d="M0 425.86 L0 425.5 L0 425.29 L-130.15 425.29" class="st11"/>
		</g>
		<g id="shape533-76" transform="translate(130.736,-340.407)">
			<title>动态连接线.533</title>
			<path d="M-7.09 435.35 L-7.09 415.9" class="st3"/>
		</g>
		<g id="shape604-79" transform="translate(349.217,-421.173)">
			<title>动态连接线.604</title>
		</g>
		<g id="group653-80" transform="translate(651.462,-36.9516)">
			<title>工作表.653</title>
			<g id="shape648-81">
				<title>工作表.648</title>
				<path d="M8.24 435.35 L49.44 394.14 L49.44 319.98 L8.24 361.18 L8.24 435.35 Z" class="st12"/>
			</g>
			<g id="group649-83" transform="translate(17.2103,-32.396)">
				<title>工作表.649</title>
				<g id="shape650-84" transform="translate(6.90414,-48.8145)">
					<title>动态连接线.371</title>
					<path d="M0 435.35 C0 444.95 -0 460.67 3.98 467.81 C7.3 473.76 13.38 473.76 17.84 473.76" class="st13"/>
				</g>
				<g id="shape651-87" transform="translate(11.7512,-19.9514)">
					<title>动态连接线.372</title>
					<path d="M-2.42 435.35 C-2.42 440.33 -2.42 448.49 -4.5 452.2 C-6.24 455.3 -9.42 455.3 -11.75 455.3"
							class="st13"/>
				</g>
			</g>
		</g>
		<g id="group500-90" transform="translate(282.815,-74.888)">
			<title>立方体</title>
			<g id="shape501-91">
				<title>工作表.501</title>
				<path d="M0 392.83 L4.72 392.83 L28.35 369.2 L23.62 369.2 L0 392.83 Z" class="st14"/>
			</g>
			<g id="shape502-93">
				<title>工作表.502</title>
				<path d="M4.72 435.35 L28.35 411.72 L28.35 369.2 L4.72 392.83 L4.72 435.35 Z" class="st15"/>
			</g>
			<g id="shape500-95">
				<rect x="0" y="392.826" width="4.72441" height="42.5197" class="st16"/>
			</g>
		</g>
		<g id="shape634-97" transform="translate(340.966,-98.3674)">
			<title>矩形.599</title>
			<desc>Scale Extractor</desc>
			<rect x="0" y="416.163" width="68.4567" height="19.1828" class="st17"/>
			<text x="6.62" y="428.45" class="st18">Scale Extractor</text>		</g>
		<g id="shape673-100" transform="translate(431.634,-74.888)">
			<title>工作表.673</title>
			<path d="M4.72 435.35 L28.35 411.72 L28.35 369.2 L4.72 392.83 L4.72 435.35 Z" class="st19"/>
		</g>
		<g id="group503-102" transform="translate(282.815,-164.179)">
			<title>立方体.143</title>
			<g id="shape504-103">
				<title>工作表.504</title>
				<path d="M0 392.83 L4.72 392.83 L28.35 369.2 L23.62 369.2 L0 392.83 Z" class="st20"/>
			</g>
			<g id="shape505-105">
				<title>工作表.505</title>
				<path d="M4.72 435.35 L28.35 411.72 L28.35 369.2 L4.72 392.83 L4.72 435.35 Z" class="st21"/>
			</g>
			<g id="shape503-107">
				<rect x="0" y="392.826" width="4.72441" height="42.5197" class="st22"/>
			</g>
		</g>
		<g id="group629-109" transform="translate(302.3,-187.291)">
			<title>工作表.629</title>
			<g id="shape630-110" transform="translate(9.59233E-14,-2.50481)">
				<title>动态连接线.598</title>
				<path d="M0 428.26 L32.73 428.26" class="st4"/>
			</g>
			<g id="shape631-115" transform="translate(38.4567,0)">
				<title>矩形.599</title>
				<desc>Scale Extractor</desc>
				<rect x="0" y="416.163" width="68.4567" height="19.1828" class="st17"/>
				<text x="6.62" y="428.45" class="st18">Scale Extractor</text>			</g>
		</g>
		<g id="shape679-118" transform="translate(409.214,-189.796)">
			<title>动态连接线.679</title>
			<path d="M0 428.26 L27.14 428.26" class="st3"/>
		</g>
		<g id="shape670-121" transform="translate(431.634,-164.179)">
			<title>工作表.670</title>
			<path d="M4.72 435.35 L28.35 411.72 L28.35 369.2 L4.72 392.83 L4.72 435.35 Z" class="st23"/>
		</g>
		<g id="group506-123" transform="translate(281.829,-253.471)">
			<title>立方体.146</title>
			<g id="shape507-124">
				<title>工作表.507</title>
				<path d="M0 392.83 L4.72 392.83 L28.35 369.2 L23.62 369.2 L0 392.83 Z" class="st24"/>
			</g>
			<g id="shape508-126">
				<title>工作表.508</title>
				<path d="M4.72 435.35 L28.35 411.72 L28.35 369.2 L4.72 392.83 L4.72 435.35 Z" class="st25"/>
			</g>
			<g id="shape506-128">
				<rect x="0" y="392.826" width="4.72441" height="42.5197" class="st26"/>
			</g>
		</g>
		<g id="group625-130" transform="translate(302.509,-276.95)">
			<title>工作表.625</title>
			<g id="shape626-131" transform="translate(1.31894E-13,-2.50481)">
				<title>动态连接线.598</title>
				<path d="M0 428.26 L32.73 428.26" class="st4"/>
			</g>
			<g id="shape627-136" transform="translate(38.4567,0)">
				<title>矩形.599</title>
				<desc>Scale Extractor</desc>
				<rect x="0" y="416.163" width="68.4567" height="19.1828" class="st17"/>
				<text x="6.62" y="428.45" class="st18">Scale Extractor</text>			</g>
		</g>
		<g id="shape667-139" transform="translate(431.634,-253.471)">
			<title>工作表.667</title>
			<path d="M4.72 435.35 L28.35 411.72 L28.35 369.2 L4.72 392.83 L4.72 435.35 Z" class="st27"/>
		</g>
		<g id="shape658-141" transform="translate(409.422,-368.779)">
			<title>动态连接线</title>
			<path d="M0 428.29 L29.87 428.23" class="st3"/>
		</g>
		<g id="group594-144" transform="translate(281.829,-344.699)">
			<title>立方体.149</title>
			<g id="shape595-145">
				<title>工作表.595</title>
				<path d="M0 392.83 L4.72 392.83 L28.35 369.2 L23.62 369.2 L0 392.83 Z" class="st28"/>
			</g>
			<g id="shape596-147">
				<title>工作表.596</title>
				<path d="M4.72 435.35 L28.35 411.72 L28.35 369.2 L4.72 392.83 L4.72 435.35 Z" class="st29"/>
			</g>
			<g id="shape594-149">
				<rect x="0" y="392.826" width="4.72441" height="42.5197" class="st30"/>
			</g>
		</g>
		<g id="group624-151" transform="translate(302.509,-366.241)">
			<title>工作表.624</title>
			<g id="shape598-152" transform="translate(1.31894E-13,-2.50481)">
				<title>动态连接线.598</title>
				<path d="M0 428.26 L32.73 428.26" class="st4"/>
			</g>
			<g id="shape599-157" transform="translate(38.4567,0)">
				<title>矩形.599</title>
				<desc>Scale Extractor</desc>
				<rect x="0" y="416.163" width="68.4567" height="19.1828" class="st17"/>
				<text x="6.62" y="428.45" class="st18">Scale Extractor</text>			</g>
		</g>
		<g id="shape656-160" transform="translate(431.634,-342.762)">
			<title>工作表.656</title>
			<path d="M4.72 435.35 L28.35 411.72 L28.35 369.2 L4.72 392.83 L4.72 435.35 Z" class="st31"/>
		</g>
		<g id="group632-162" transform="translate(302.509,-110.482)">
			<title>工作表.632</title>
			<g id="shape633-163" transform="translate(-0.191366,9.62882)">
				<title>动态连接线.598</title>
				<path d="M0 428.28 L0 428.24 L32.93 428.24" class="st4"/>
			</g>
		</g>
		<g id="group1013-168" transform="translate(605.539,-73.2714)">
			<title>工作表.1013</title>
			<g id="shape1014-169">
				<title>圆形</title>
				<path d="M0 425.75 A9.59142 9.59142 0 0 1 19.18 425.75 A9.59142 9.59142 0 0 1 0 425.75 Z" class="st32"/>
			</g>
			<g id="shape1015-171" transform="translate(2.50481,-16.678)">
				<title>动态连接线.252</title>
				<path d="M0.3 435.65 L13.87 449.22" class="st3"/>
			</g>
			<g id="shape1016-174" transform="translate(16.678,-16.678)">
				<title>动态连接线.253</title>
				<path d="M-0.3 435.65 L-13.87 449.22" class="st3"/>
			</g>
		</g>
		<g id="shape1018-177" transform="translate(289.409,-263.178)">
			<title>动态连接线.1018</title>
			<path d="M6.85 435.35 L7.26 472.19" class="st4"/>
		</g>
		<g id="shape1019-182" transform="translate(288.915,-354.148)">
			<title>动态连接线.1019</title>
			<path d="M7.09 435.35 L7.09 473.61" class="st4"/>
		</g>
		<g id="group1021-187" transform="translate(517.878,-2.83465)">
			<title>工作表.1021</title>
			<g id="group1022-188">
				<title>立方体</title>
				<g id="shape1023-189">
					<title>工作表.1023</title>
					<path d="M0 392.83 L4.72 392.83 L28.35 369.2 L23.62 369.2 L0 392.83 Z" class="st14"/>
				</g>
				<g id="shape1024-191">
					<title>工作表.1024</title>
					<path d="M4.72 435.35 L28.35 411.72 L28.35 369.2 L4.72 392.83 L4.72 435.35 Z" class="st15"/>
				</g>
				<g id="shape1022-193">
					<rect x="0" y="392.826" width="4.72441" height="42.5197" class="st16"/>
				</g>
			</g>
			<g id="group1025-195" transform="translate(4.53543,-5.68434E-14)">
				<title>立方体.143</title>
				<g id="shape1026-196">
					<title>工作表.1026</title>
					<path d="M0 392.83 L4.72 392.83 L28.35 369.2 L23.62 369.2 L0 392.83 Z" class="st20"/>
				</g>
				<g id="shape1027-198">
					<title>工作表.1027</title>
					<path d="M4.72 435.35 L28.35 411.72 L28.35 369.2 L4.72 392.83 L4.72 435.35 Z" class="st21"/>
				</g>
				<g id="shape1025-200">
					<rect x="0" y="392.826" width="4.72441" height="42.5197" class="st22"/>
				</g>
			</g>
			<g id="group1028-202" transform="translate(9.07087,0)">
				<title>立方体.146</title>
				<g id="shape1029-203">
					<title>工作表.1029</title>
					<path d="M0 392.83 L4.72 392.83 L28.35 369.2 L23.62 369.2 L0 392.83 Z" class="st24"/>
				</g>
				<g id="shape1030-205">
					<title>工作表.1030</title>
					<path d="M4.72 435.35 L28.35 411.72 L28.35 369.2 L4.72 392.83 L4.72 435.35 Z" class="st25"/>
				</g>
				<g id="shape1028-207">
					<rect x="0" y="392.826" width="4.72441" height="42.5197" class="st26"/>
				</g>
			</g>
			<g id="group1031-209" transform="translate(13.6063,-5.68434E-14)">
				<title>立方体.149</title>
				<g id="shape1032-210">
					<title>工作表.1032</title>
					<path d="M0 392.83 L4.72 392.83 L28.35 369.2 L23.62 369.2 L0 392.83 Z" class="st28"/>
				</g>
				<g id="shape1033-212">
					<title>工作表.1033</title>
					<path d="M4.72 435.35 L28.35 411.72 L28.35 369.2 L4.72 392.83 L4.72 435.35 Z" class="st29"/>
				</g>
				<g id="shape1031-214">
					<rect x="0" y="392.826" width="4.72441" height="42.5197" class="st30"/>
				</g>
			</g>
		</g>
		<g id="shape1034-216" transform="translate(577.277,-231.296)">
			<title>动态连接线.1034</title>
		</g>
		<g id="shape1052-217" transform="translate(547.795,-34.2992)">
			<title>动态连接线.1052</title>
			<path d="M0 435.35 L67.34 435.35 L67.34 396.37" class="st3"/>
		</g>
		<g id="shape1061-220" transform="translate(624.722,-89.9069)">
			<title>动态连接线.1061</title>
			<path d="M0 442.39 L20.17 442.46" class="st4"/>
		</g>
		<g id="shape1062-225" transform="translate(622.234,-140.548)">
			<title>动态连接线.1062</title>
			<path d="M-7.07 435.35 L-7.1 483.44" class="st3"/>
		</g>
		<g id="group1060-228" transform="translate(590.457,-133.926)">
			<title>工作表.1060</title>
			<g id="shape1056-229">
				<title>矩形.1056</title>
				<rect x="0" y="422.102" width="12.3539" height="13.244" class="st33"/>
			</g>
			<g id="shape1057-231" transform="translate(12.3254,-5.68434E-14)">
				<title>矩形.1057</title>
				<rect x="0" y="422.102" width="12.3539" height="13.244" class="st34"/>
			</g>
			<g id="shape1058-233" transform="translate(24.7079,-5.68434E-14)">
				<title>矩形.1058</title>
				<rect x="0" y="422.102" width="12.3539" height="13.244" class="st35"/>
			</g>
			<g id="shape1059-235" transform="translate(37.0904,-5.68434E-14)">
				<title>矩形.1059</title>
				<rect x="0" y="422.102" width="12.3539" height="13.244" class="st36"/>
			</g>
		</g>
		<g id="shape1063-237" transform="translate(576.314,-146.835)">
			<title>工作表.1063</title>
			<desc>Scale Weight</desc>
			<rect x="0" y="415.504" width="77.6085" height="19.8425" class="st37"/>
			<text x="12.01" y="428.72" class="st38">Scale Weight</text>		</g>
		<g id="group1065-240" transform="translate(17.3505,-241.043)">
			<title>工作表.1065</title>
			<g id="group442-241" transform="translate(158.086,0)">
				<title>工作表.442</title>
				<g id="group443-242" transform="translate(0,-16.8788)">
					<title>工作表.443</title>
					<g id="shape444-243">
						<title>正方形.119</title>
						<rect x="0" y="382.855" width="52.4908" height="52.4908" class="st39"/>
					</g>
					<g id="shape445-245" transform="translate(1.05416E-13,-45.9294)">
						<title>正方形.120</title>
						<rect x="0" y="428.785" width="6.56135" height="6.56135" class="st40"/>
					</g>
					<g id="shape446-247" transform="translate(45.9294,-45.9294)">
						<title>正方形.121</title>
						<rect x="0" y="428.785" width="6.56135" height="6.56135" class="st40"/>
					</g>
					<g id="shape447-249" transform="translate(22.9647,-45.9294)">
						<title>正方形.122</title>
						<rect x="0" y="428.785" width="6.56135" height="6.56135" class="st40"/>
					</g>
					<g id="shape448-251" transform="translate(1.05416E-13,-22.9647)">
						<title>正方形.123</title>
						<rect x="0" y="428.785" width="6.56135" height="6.56135" class="st40"/>
					</g>
					<g id="shape449-253">
						<title>正方形.124</title>
						<rect x="0" y="428.785" width="6.56135" height="6.56135" class="st40"/>
					</g>
					<g id="shape450-255" transform="translate(22.9647,-22.9647)">
						<title>正方形.125</title>
						<rect x="0" y="428.785" width="6.56135" height="6.56135" class="st40"/>
					</g>
					<g id="shape451-257" transform="translate(45.9294,-22.9647)">
						<title>正方形.126</title>
						<rect x="0" y="428.785" width="6.56135" height="6.56135" class="st40"/>
					</g>
					<g id="shape452-259" transform="translate(22.9647,-0.0656135)">
						<title>正方形.127</title>
						<rect x="0" y="428.785" width="6.56135" height="6.56135" class="st40"/>
					</g>
					<g id="shape453-261" transform="translate(45.9294,-0.0656135)">
						<title>正方形.128</title>
						<rect x="0" y="428.785" width="6.56135" height="6.56135" class="st40"/>
					</g>
				</g>
				<g id="shape454-263" transform="translate(9.96681,0)">
					<title>工作表.454</title>
					<desc>R=16</desc>
					<rect x="0" y="430.547" width="32.5572" height="4.79881" class="st37"/>
					<text x="6.24" y="435.65" class="st18">R=16</text>				</g>
			</g>
			<g id="group455-266" transform="translate(98.8292,-1.7053E-13)">
				<title>工作表.455</title>
				<g id="group456-267" transform="translate(0,-16.8788)">
					<title>工作表.456</title>
					<g id="shape457-268">
						<title>正方形.66</title>
						<rect x="0" y="389.417" width="45.9294" height="45.9294" class="st39"/>
					</g>
					<g id="shape458-270" transform="translate(-4.64628E-14,-39.3681)">
						<title>正方形.68</title>
						<rect x="0" y="428.785" width="6.56135" height="6.56135" class="st40"/>
					</g>
					<g id="shape459-272" transform="translate(39.3681,-39.3681)">
						<title>正方形.70</title>
						<rect x="0" y="428.785" width="6.56135" height="6.56135" class="st40"/>
					</g>
					<g id="shape460-274" transform="translate(19.684,-39.3681)">
						<title>正方形.71</title>
						<rect x="0" y="428.785" width="6.56135" height="6.56135" class="st40"/>
					</g>
					<g id="shape461-276" transform="translate(-4.64628E-14,-19.684)">
						<title>正方形.72</title>
						<rect x="0" y="428.785" width="6.56135" height="6.56135" class="st40"/>
					</g>
					<g id="shape462-278" transform="translate(-4.64628E-14,-1.89896E-06)">
						<title>正方形.77</title>
						<rect x="0" y="428.785" width="6.56135" height="6.56135" class="st40"/>
					</g>
					<g id="shape463-280" transform="translate(19.684,-19.684)">
						<title>正方形.78</title>
						<rect x="0" y="428.785" width="6.56135" height="6.56135" class="st40"/>
					</g>
					<g id="shape464-282" transform="translate(39.3681,-19.684)">
						<title>正方形.79</title>
						<rect x="0" y="428.785" width="6.56135" height="6.56135" class="st40"/>
					</g>
					<g id="shape465-284" transform="translate(19.684,-1.89896E-06)">
						<title>正方形.80</title>
						<rect x="0" y="428.785" width="6.56135" height="6.56135" class="st40"/>
					</g>
					<g id="shape466-286" transform="translate(39.3681,-1.89896E-06)">
						<title>正方形.81</title>
						<rect x="0" y="428.785" width="6.56135" height="6.56135" class="st40"/>
					</g>
				</g>
				<g id="shape467-288" transform="translate(6.68613,0)">
					<title>工作表.467</title>
					<desc>R=9</desc>
					<rect x="0" y="430.547" width="32.5572" height="4.79881" class="st37"/>
					<text x="8.49" y="435.65" class="st18">R=9</text>				</g>
			</g>
			<g id="group468-291" transform="translate(46.1339,-3.41061E-13)">
				<title>工作表.468</title>
				<g id="group469-292" transform="translate(0,-16.8788)">
					<title>工作表.469</title>
					<g id="shape470-293" transform="translate(0,-2.28202E-07)">
						<title>正方形.57</title>
						<rect x="0" y="395.978" width="39.3681" height="39.3681" class="st39"/>
					</g>
					<g id="shape471-295" transform="translate(0,-32.8067)">
						<title>正方形.68</title>
						<rect x="0" y="428.785" width="6.56135" height="6.56135" class="st40"/>
					</g>
					<g id="shape472-297" transform="translate(32.8067,-32.8067)">
						<title>正方形.70</title>
						<rect x="0" y="428.785" width="6.56135" height="6.56135" class="st40"/>
					</g>
					<g id="shape473-299" transform="translate(16.4034,-32.8067)">
						<title>正方形.71</title>
						<rect x="0" y="428.785" width="6.56135" height="6.56135" class="st40"/>
					</g>
					<g id="shape474-301" transform="translate(0,-16.4034)">
						<title>正方形.72</title>
						<rect x="0" y="428.785" width="6.56135" height="6.56135" class="st40"/>
					</g>
					<g id="shape475-303">
						<title>正方形.77</title>
						<rect x="0" y="428.785" width="6.56135" height="6.56135" class="st40"/>
					</g>
					<g id="shape476-305" transform="translate(16.4034,-16.4034)">
						<title>正方形.78</title>
						<rect x="0" y="428.785" width="6.56135" height="6.56135" class="st40"/>
					</g>
					<g id="shape477-307" transform="translate(32.8067,-16.4034)">
						<title>正方形.79</title>
						<rect x="0" y="428.785" width="6.56135" height="6.56135" class="st40"/>
					</g>
					<g id="shape478-309" transform="translate(16.4034,5.68434E-14)">
						<title>正方形.80</title>
						<rect x="0" y="428.785" width="6.56135" height="6.56135" class="st40"/>
					</g>
					<g id="shape479-311" transform="translate(32.8067,5.68434E-14)">
						<title>正方形.81</title>
						<rect x="0" y="428.785" width="6.56135" height="6.56135" class="st40"/>
					</g>
				</g>
				<g id="shape480-313" transform="translate(3.40546,0)">
					<title>工作表.480</title>
					<desc>R=5</desc>
					<rect x="0" y="430.547" width="32.5572" height="4.79881" class="st37"/>
					<text x="8.49" y="435.65" class="st18">R=5</text>				</g>
			</g>
			<g id="group481-316">
				<title>工作表.481</title>
				<g id="group482-317" transform="translate(0,-16.8788)">
					<title>工作表.482</title>
					<g id="shape483-318">
						<title>正方形</title>
						<rect x="0" y="402.539" width="32.8067" height="32.8067" class="st39"/>
					</g>
					<g id="shape484-320" transform="translate(0,-26.2454)">
						<title>正方形.51</title>
						<rect x="0" y="428.785" width="6.56135" height="6.56135" class="st40"/>
					</g>
					<g id="shape485-322" transform="translate(26.2454,-26.2454)">
						<title>正方形.53</title>
						<rect x="0" y="428.785" width="6.56135" height="6.56135" class="st40"/>
					</g>
					<g id="shape486-324" transform="translate(13.1227,-26.2454)">
						<title>正方形.56</title>
						<rect x="0" y="428.785" width="6.56135" height="6.56135" class="st40"/>
					</g>
					<g id="shape487-326" transform="translate(0,-13.1227)">
						<title>正方形.57</title>
						<rect x="0" y="428.785" width="6.56135" height="6.56135" class="st40"/>
					</g>
					<g id="shape488-328">
						<title>正方形.60</title>
						<rect x="0" y="428.785" width="6.56135" height="6.56135" class="st40"/>
					</g>
					<g id="shape489-330" transform="translate(13.1227,0)">
						<title>正方形.61</title>
						<rect x="0" y="428.785" width="6.56135" height="6.56135" class="st40"/>
					</g>
					<g id="shape490-332" transform="translate(13.1227,-13.1227)">
						<title>正方形.62</title>
						<rect x="0" y="428.785" width="6.56135" height="6.56135" class="st40"/>
					</g>
					<g id="shape491-334" transform="translate(26.2454,-13.1227)">
						<title>正方形.63</title>
						<rect x="0" y="428.785" width="6.56135" height="6.56135" class="st40"/>
					</g>
					<g id="shape492-336" transform="translate(26.2454,0)">
						<title>正方形.64</title>
						<rect x="0" y="428.785" width="6.56135" height="6.56135" class="st40"/>
					</g>
				</g>
				<g id="shape493-338" transform="translate(0.124788,0)">
					<title>工作表.493</title>
					<desc>R=2</desc>
					<rect x="0" y="430.547" width="32.5572" height="4.79881" class="st37"/>
					<text x="8.49" y="435.65" class="st18">R=2</text>				</g>
			</g>
		</g>
		<g id="shape1070-341" transform="translate(409.422,-293.628)">
			<title>动态连接线.1070</title>
			<path d="M0 442.43 L26.94 442.43" class="st3"/>
		</g>
		<g id="shape1071-344" transform="translate(409.422,-100.872)">
			<title>动态连接线.1071</title>
			<path d="M0 428.26 L26.94 428.26" class="st3"/>
		</g>
		<g id="group1072-347" transform="translate(513.071,-108.29)">
			<title>工作表.1072</title>
			<g id="shape1011-348" transform="translate(5.9952E-15,-0.0345906)">
				<title>工作表.1011</title>
				<path d="M4.72 435.35 L28.35 411.72 L28.35 369.2 L4.72 392.83 L4.72 435.35 Z" class="st41"/>
			</g>
			<g id="shape1008-350" transform="translate(4.60635,-5.68434E-14)">
				<title>工作表.1008</title>
				<path d="M4.72 435.35 L28.35 411.72 L28.35 369.2 L4.72 392.83 L4.72 435.35 Z" class="st42"/>
			</g>
			<g id="shape1005-352" transform="translate(9.14178,0)">
				<title>工作表.1005</title>
				<path d="M4.72 435.35 L28.35 411.72 L28.35 369.2 L4.72 392.83 L4.72 435.35 Z" class="st27"/>
			</g>
			<g id="shape1002-354" transform="translate(13.6063,-0.0345906)">
				<title>工作表.1002</title>
				<path d="M4.72 435.35 L28.35 411.72 L28.35 369.2 L4.72 392.83 L4.72 435.35 Z" class="st31"/>
			</g>
		</g>
		<g id="shape526-356" transform="translate(547.75,-133.393)">
			<title>动态连接线.526</title>
			<path d="M0 428.33 L0 428.19 L36.98 428.19" class="st4"/>
		</g>
	</g>
</svg>
